# xmcd
#
# Track frame offsets:
# 150
# 10721
# 21178
# 31866
# 41855
# 53595
# 63627
# 72806
# 83515
# 92299
# 102310
# 112232
#
# Disc length: 1667 seconds
#
# Revision: 0
# Processed by: cddbd v1.5.2PL0 Copyright (c) Steve Scherf et al.
# Submitted via: Axialis_AX_CDPlayer 2.6
#
DISCID=8f06810c
DTITLE=Leroy Van Dyke - Walk On By
DYEAR=1900
DGENRE=
TTITLE0=Walk On By
TTITLE1=My World Is Caving In
TTITLE2=The Image Of Me
TTITLE3=Take Good Care Of Her
TTITLE4=Big Man In A Big House
TTITLE5=Three Hearts In A Tangle
TTITLE6=Handful Of Friends
TTITLE7=Sea Of Heartbreak
TTITLE8=I Miss You Already
TTITLE9=Heartaches By The Number
TTITLE10=Big Shoes
TTITLE11=Funny How Time Slips away
EXTD=
EXTT0=
EXTT1=
EXTT2=
EXTT3=
EXTT4=
EXTT5=
EXTT6=
EXTT7=
EXTT8=
EXTT9=
EXTT10=
EXTT11=
PLAYORDER=
